<?xml version="1.0" standalone="no"?>
<!DOCTYPE svg PUBLIC "-//W3C//DTD SVG 20010904//EN"
 "http://www.w3.org/TR/2001/REC-SVG-20010904/DTD/svg10.dtd">
<svg version="1.0" xmlns="http://www.w3.org/2000/svg"
 width="474.000000pt" height="429.000000pt" viewBox="0 0 474.000000 429.000000"
 preserveAspectRatio="xMidYMid meet">

<g transform="translate(0.000000,429.000000) scale(0.100000,-0.100000)"
fill="#000000" stroke="none">
<path d="M1565 3731 c-127 -14 -236 -94 -320 -239 -37 -62 -45 -86 -45 -125 0
-44 4 -54 39 -88 35 -35 44 -39 91 -39 46 0 56 4 83 34 18 18 47 58 65 87 35
58 85 99 119 99 28 0 77 -60 93 -113 31 -106 63 -137 140 -137 32 0 48 7 76
33 50 46 56 103 20 207 -73 219 -179 301 -361 281z"/>
<path d="M3525 3538 c-83 -30 -159 -103 -222 -213 -41 -70 -47 -87 -47 -141
-1 -49 3 -67 19 -84 33 -36 74 -53 118 -47 48 7 79 35 118 107 54 102 100 134
159 110 38 -16 86 -92 101 -158 9 -44 17 -57 49 -78 31 -20 48 -25 90 -22 48
3 56 7 84 41 27 34 31 46 29 95 -3 136 -118 317 -233 369 -75 34 -200 44 -265
21z"/>
<path d="M540 2250 c-84 -31 -104 -56 -108 -137 -3 -61 0 -73 28 -121 50 -85
128 -133 305 -184 378 -108 600 -141 980 -142 230 0 256 1 321 22 85 26 116
49 160 118 29 44 34 62 34 110 0 56 -2 59 -49 105 -36 35 -64 51 -107 64 -60
18 -82 21 -309 49 -223 28 -438 57 -490 66 -100 17 -513 62 -610 66 -82 3
-110 0 -155 -16z m239 -66 c26 -6 35 -15 53 -56 27 -63 112 -141 175 -162 73
-23 150 -26 216 -9 49 14 70 27 124 81 l66 64 176 -22 c97 -12 232 -28 299
-35 225 -25 319 -76 298 -160 -3 -13 -23 -42 -44 -64 -63 -66 -112 -75 -402
-75 -140 0 -286 6 -340 13 -188 25 -416 69 -525 102 -38 11 -92 27 -118 34
-27 8 -82 29 -122 49 -88 41 -135 96 -135 156 0 43 19 64 70 78 40 12 163 15
209 6z"/>
<path d="M2620 2011 c-77 -11 -136 -46 -159 -95 -26 -53 -26 -81 0 -151 40
-108 122 -160 339 -214 371 -92 813 -124 1200 -86 168 16 238 34 297 78 50 38
96 124 96 180 0 100 -131 167 -368 187 -66 6 -199 17 -295 25 -96 9 -195 17
-220 20 -25 2 -155 14 -290 25 -135 11 -298 25 -362 30 -125 11 -168 11 -238
1z m205 -80 c25 -5 36 -18 62 -71 97 -195 347 -250 505 -110 24 21 53 57 63
79 17 39 20 41 64 41 98 -1 599 -50 654 -64 126 -34 165 -73 134 -132 -31 -59
-88 -95 -177 -113 -195 -38 -669 -40 -940 -3 -286 39 -514 98 -593 152 -51 35
-79 84 -75 132 5 70 62 95 208 96 36 0 78 -3 95 -7z"/>
<path d="M1585 1495 c-60 -7 -132 -18 -160 -23 -270 -55 -385 -185 -279 -312
57 -67 164 -90 425 -90 233 0 610 34 789 71 123 26 258 59 310 77 164 57 206
135 102 189 -49 26 -115 39 -407 82 -118 17 -654 22 -780 6z m780 -90 c188
-22 355 -55 355 -70 0 -20 -177 -74 -340 -104 -227 -42 -646 -86 -664 -70 -12
10 18 55 62 95 33 29 42 32 133 38 181 11 250 35 273 91 17 41 9 40 181 20z
m-823 -32 c15 -31 64 -59 121 -69 20 -4 37 -11 37 -16 0 -5 -13 -28 -29 -51
-15 -23 -31 -52 -35 -64 -7 -22 -12 -23 -107 -23 -242 0 -384 58 -333 135 22
34 125 83 209 99 107 22 122 20 137 -11z m348 23 c0 -9 -40 -13 -46 -5 -3 5 6
9 20 9 14 0 26 -2 26 -4z"/>
</g>
</svg>
